<svg width="24" height="24" viewBox="0 0 24 24" fill="none" xmlns="http://www.w3.org/2000/svg">
<path d="M7.86938 10.1843C7.51039 10.1843 7.21938 9.89331 7.21938 9.53433V8.68422H6.36938C6.01039 8.68422 5.71938 8.3932 5.71938 8.03422C5.71938 7.67523 6.01039 7.38422 6.36938 7.38422H7.21938V6.53433C7.21938 6.17534 7.51039 5.88433 7.86938 5.88433C8.22836 5.88433 8.51938 6.17534 8.51938 6.53433V7.38422H9.36938C9.72836 7.38422 10.0194 7.67523 10.0194 8.03422C10.0194 8.3932 9.72836 8.68422 9.36938 8.68422H8.51938V9.53433C8.51938 9.89331 8.22836 10.1843 7.86938 10.1843Z" fill="#5095EC"/>
<path d="M9.38966 17.6766C9.13582 17.9305 8.72426 17.9305 8.47042 17.6766L7.86931 17.0755L7.26828 17.6765C7.01444 17.9304 6.60288 17.9304 6.34904 17.6765C6.0952 17.4227 6.0952 17.0111 6.34904 16.7573L6.95007 16.1563L6.3491 15.5553C6.09526 15.3014 6.09526 14.8899 6.3491 14.6361C6.60294 14.3822 7.0145 14.3822 7.26834 14.6361L7.86931 15.237L8.47036 14.636C8.7242 14.3821 9.13576 14.3821 9.3896 14.636C9.64344 14.8898 9.64344 15.3014 9.3896 15.5552L8.78855 16.1563L9.38966 16.7574C9.6435 17.0112 9.6435 17.4228 9.38966 17.6766Z" fill="#5095EC"/>
<path d="M15.2561 14.4544C14.8971 14.4544 14.6061 14.7454 14.6061 15.1044C14.6061 15.4634 14.8971 15.7544 15.2561 15.7544H17.2561C17.6151 15.7544 17.9061 15.4634 17.9061 15.1044C17.9061 14.7454 17.6151 14.4544 17.2561 14.4544H15.2561Z" fill="#5095EC"/>
<path d="M14.6061 17.1405C14.6061 16.7816 14.8971 16.4905 15.2561 16.4905H17.2561C17.6151 16.4905 17.9061 16.7816 17.9061 17.1405C17.9061 17.4995 17.6151 17.7905 17.2561 17.7905H15.2561C14.8971 17.7905 14.6061 17.4995 14.6061 17.1405Z" fill="#5095EC"/>
<path d="M14.6061 8.03428C14.6061 7.67529 14.8971 7.38428 15.2561 7.38428H17.2561C17.6151 7.38428 17.9061 7.67529 17.9061 8.03428C17.9061 8.39326 17.6151 8.68428 17.2561 8.68428H15.2561C14.8971 8.68428 14.6061 8.39326 14.6061 8.03428Z" fill="#5095EC"/>
<path fill-rule="evenodd" clip-rule="evenodd" d="M18 21C19.6569 21 21 19.6569 21 18V6C21 4.34315 19.6569 3 18 3H6C4.4467 3 3.16912 4.1805 3.01549 5.69327C3.00525 5.79412 3 5.89645 3 6V18C3 19.6569 4.34315 21 6 21H18ZM4.3 6C4.3 5.06112 5.06112 4.3 6 4.3L11.3522 4.3V11.3463H4.3V6ZM4.3 12.6463V18C4.3 18.9389 5.06112 19.7 6 19.7H11.3522V12.6463H4.3ZM12.6522 19.7H18C18.9389 19.7 19.7 18.9389 19.7 18V12.6463H12.6522V19.7ZM19.7 11.3463V6C19.7 5.06112 18.9389 4.3 18 4.3H12.6522V11.3463H19.7Z" fill="#5095EC"/>
</svg>
