<svg width="24" height="24" viewBox="0 0 24 24" fill="none" xmlns="http://www.w3.org/2000/svg">
<path d="M8.65023 6.99888C8.29112 6.99888 8 7.28976 8 7.64858C8 8.00739 8.29112 8.29827 8.65023 8.29827H15.3527C15.7118 8.29827 16.0029 8.00739 16.0029 7.64858C16.0029 7.28976 15.7118 6.99888 15.3527 6.99888H8.65023Z" fill="#5095EC"/>
<path d="M8 10.6472C8 10.2884 8.29112 9.99748 8.65023 9.99748H15.3526C15.7118 9.99748 16.0029 10.2884 16.0029 10.6472C16.0029 11.006 15.7118 11.2969 15.3526 11.2969H8.65023C8.29112 11.2969 8 11.006 8 10.6472Z" fill="#5095EC"/>
<path d="M8 13.6458C8 13.287 8.29112 12.9961 8.65023 12.9961H11.8514C12.2105 12.9961 12.5016 13.287 12.5016 13.6458C12.5016 14.0046 12.2105 14.2955 11.8514 14.2955H8.65023C8.29112 14.2955 8 14.0046 8 13.6458Z" fill="#5095EC"/>
<path fill-rule="evenodd" clip-rule="evenodd" d="M5 19.3936L5.00893 5.59989C5.00893 4.16462 6.1734 3.0011 7.60986 3.0011H16.3991C17.8355 3.0011 19 4.16462 19 5.59989L18.9911 19.3991C18.9911 20.6529 17.6129 21.4191 16.5467 20.7581L14.8715 19.7196C14.6634 19.5906 14.3979 19.601 14.2005 19.7458L12.9123 20.6909C12.3486 21.1045 11.5814 21.1045 11.0177 20.6909L9.73916 19.7529C9.54025 19.607 9.27229 19.5976 9.06373 19.7294L7.45607 20.7453C6.39034 21.4187 5 20.6536 5 19.3936ZM17.6911 19.3983L17.7 5.59989C17.7 4.8836 17.1186 4.3011 16.3991 4.3011H7.60986C6.89036 4.3011 6.30893 4.88444 6.30893 5.60073L6.3 19.3939C6.30021 19.6278 6.55998 19.7737 6.76164 19.6463L8.3693 18.6304C9.02973 18.2131 9.87828 18.2426 10.5082 18.7047L11.7867 19.6428C11.8927 19.7205 12.0373 19.7205 12.1433 19.6428L13.4315 18.6977C14.0565 18.2391 14.8976 18.2062 15.5565 18.6147L17.2316 19.6532C17.4335 19.7783 17.6911 19.6312 17.6911 19.3983Z" fill="#5095EC"/>
</svg>
